# xmcd CD database file
# Generated: Fri May 31 22:21:20 2002 by KSCD
# 
# Track frame offsets:
#       150
#       12042
#       20815
#       30195
#       42680
#       50867
#       58177
#       69975
#       82592
#       101580
#       108472
#       124080
#       137085
#       148420
#       160205
#       171300
#       184915
#       193310
#       207440
#       226112
#       241675
#       252832
#       262315
#       273187
#       285452
#       304372
#       313750
#       326487
#       340912
#
# Disc length: 4749 seconds
#
# Revision: 1
# Processed by: cddbd v1.4PL0 Copyright (c) Steve Scherf et al.
# Submitted via: Kscd 1.3.2
#
DISCID=b3128b1d
DTITLE=Bill Clifton - Around The World To Poor Valley 7
DYEAR=1900
DGENRE=
TTITLE0=Are You From Dixie
TTITLE1=Ashdown Waltz
TTITLE2=Dixie Cannonball
TTITLE3=Down In My Old Cabin Home
TTITLE4=Fourteen Days In Georgia
TTITLE5=It Takes A Long Tall Brown Skin Gal To Make..
TTITLE6=Keep That Wheel A-Turning
TTITLE7=On The Sea Of Galilee
TTITLE8=She Has Forgotten
TTITLE9=Sugartree Stomp
TTITLE10=Tall Pines
TTITLE11=The Old Man's Story
TTITLE12=There's No Other Love For Me
TTITLE13=The Spirit Of Love Watches Me
TTITLE14=Valley Of Peace
TTITLE15=You're My Best Friend
TTITLE16=Blue Dreams
TTITLE17=Country Is A Feeling In Your Soul
TTITLE18=From Jerusalem To Jericho
TTITLE19=I Need The Prayers Of Those I Love
TTITLE20=Let Me Make You Smile Again
TTITLE21=Maybe You Will Miss Me When I'm Gone
TTITLE22=Night In June
TTITLE23=Over The Hill
TTITLE24=Rainin' On The Mountain
TTITLE25=Six Bells
TTITLE26=When Autumn Leaves Begin To Fall
TTITLE27=Will The Angels Have A Sweetheart
TTITLE28=Jumpin' Old Rattler
EXTD=null
EXTT0=with  RED RECTOR
EXTT1=with  RED RECTOR
EXTT2=with  RED RECTOR
EXTT3=with  RED RECTOR
EXTT4=with  RED RECTOR
EXTT5=with  RED RECTOR
EXTT6=with  RED RECTOR
EXTT7=with  RED RECTOR
EXTT8=with  RED RECTOR
EXTT9=with  RED RECTOR
EXTT10=with  RED RECTOR
EXTT11=with  RED RECTOR
EXTT12=with  RED RECTOR
EXTT13=with  RED RECTOR
EXTT14=with  RED RECTOR
EXTT15=with  RED RECTOR
EXTT16=null
EXTT17=null
EXTT18=null
EXTT19=null
EXTT20=null
EXTT21=null
EXTT22=null
EXTT23=null
EXTT24=null
EXTT25=null
EXTT26=null
EXTT27=null
EXTT28=null
PLAYORDER=
